PathFileType	4	(X/Y/Z)	D:\TRACE\v60_Jaco2_6-2-23\JustBodyDRS_Motion2_8-v60.trc
DataRate	CameraRate	NumFrames	NumMarkers	Units	OrigDataRate	OrigDataStartFrame	OrigNumFrames
100.00	100.00	      24	9	mm	100.00	1	      6914
Frame#	Time	front left toe			Front right toe			aft left toe			aft right toe			Arm			FL body			FR body			AL Body			AR Body			
		X1	Y1	Z1	X2	Y2	Z2	X3	Y3	Z3	X4	Y4	Z4	X5	Y5	Z5	X6	Y6	Z6	X7	Y7	Z7	X8	Y8	Z8	X9	Y9	Z9	

1	0.000	-185.77440	19.81200	-144.81725	228.84988	17.79154	-163.97127	-154.69766	15.50868	494.53775	249.36334	18.76011	443.24420	-85.20506	1206.10437	-298.53909	-60.86462	574.19385	-288.76294	98.82585	573.57458	-296.34702	-14.72826	580.85645	656.81165	141.65308	574.52771	649.86383	
2	0.010	-185.71593	19.74894	-144.78424	228.79921	17.78908	-163.98169	-154.71286	15.49089	494.53723	249.30000	18.75120	443.25522	-84.91346	1206.17603	-298.26465	-60.96235	574.22137	-288.80426	98.76256	573.61456	-296.34091	-14.71606	580.84613	656.82581	141.26996	574.29285	649.69543	
3	0.020	-185.73705	19.74021	-144.77173	228.86707	17.80334	-163.97627	-154.67625	15.48652	494.54495	249.23392	18.70891	443.21994	-84.94703	1206.14844	-298.28540	-60.94932	574.22162	-288.81369	98.72872	573.61401	-296.34515	-14.70102	580.81958	656.70099	141.22447	574.30652	649.72113	
4	0.030	-185.78972	19.87920	-144.82103	228.76598	17.75777	-164.00772	-154.72441	15.54259	494.53168	249.20760	18.71223	443.20859	-85.35452	1206.14783	-298.57538	-60.98087	574.21582	-288.76108	98.68127	573.62994	-296.30179	-14.73159	580.85638	656.82037	141.17889	574.29877	649.69409	
5	0.040	-185.75972	19.84747	-144.83134	228.84256	17.78641	-163.97617	-154.72285	15.52106	494.56021	249.25087	18.74776	443.21094	-85.00942	1206.18921	-298.23019	-61.03746	574.22992	-288.79578	98.63547	573.65393	-296.30743	-14.71909	580.88269	656.79877	141.22923	574.31152	649.66888	
6	0.050	-185.76244	19.80793	-144.81770	228.81207	17.77248	-163.97559	-154.70891	15.49550	494.53781	249.22046	18.70323	443.22348	-85.31551	1206.09412	-298.47226	-61.03770	574.23987	-288.76520	98.68994	573.64880	-296.27100	-14.71204	580.86621	656.82397	141.53685	574.52972	649.84674	
7	0.060	-185.76038	19.79262	-144.77626	228.80707	17.75979	-163.98236	-154.69547	15.51048	494.57260	249.20424	18.71575	443.26498	-85.37177	1206.15527	-298.44672	-61.05843	574.22784	-288.78165	98.59551	573.67767	-296.31796	-14.70866	580.82660	656.82526	141.10912	574.27271	649.72723	
8	0.070	-185.72563	19.78389	-144.80408	228.81215	17.75105	-164.00371	-154.71455	15.49995	494.55649	249.31190	18.73614	443.23953	-85.10314	1206.16919	-298.19449	-61.06609	574.22687	-288.79047	98.60076	573.66095	-296.27130	-14.73627	580.84485	656.79547	141.18001	574.28009	649.67151	
9	0.080	-185.74675	19.80474	-144.82155	228.80698	17.73965	-163.99590	-154.69557	15.49444	494.55988	249.28059	18.76373	443.23639	-85.49281	1206.10632	-298.47546	-61.09073	574.22443	-288.74857	98.60030	573.65753	-296.25101	-14.76174	580.77087	656.69086	141.24400	574.32935	649.71185	
10	0.090	-185.72403	19.78602	-144.84714	228.84000	17.79193	-163.98911	-154.74876	15.53888	494.54019	249.31854	18.78922	443.28040	-85.48883	1206.15247	-298.46439	-61.10124	574.22827	-288.76544	98.55952	573.68378	-296.25873	-14.77233	580.76849	656.68011	141.15590	574.31567	649.69965	
11	0.100	-185.68040	19.77459	-144.81532	228.79944	17.78249	-163.98305	-154.73392	15.52866	494.54071	249.20105	18.74181	443.22153	-85.58650	1206.13171	-298.47379	-61.12324	574.23328	-288.77368	98.48993	573.71692	-296.26178	-14.79561	580.73676	656.68774	141.05046	574.29974	649.69574	
12	0.110	-185.81554	19.81431	-144.82138	228.81075	17.83388	-164.00362	-154.70996	15.53373	494.55859	249.21735	18.75521	443.23465	-85.43332	1206.10547	-298.36194	-61.14685	574.22150	-288.74820	98.50941	573.70209	-296.24753	-14.79191	580.78156	656.69073	141.15216	574.34125	649.74884	
13	0.120	-185.73956	19.76126	-144.82124	228.76816	17.79062	-164.02489	-154.70996	15.48480	494.57434	249.16258	18.69455	443.20496	-85.55817	1206.11768	-298.49728	-61.18793	574.24207	-288.76947	98.52289	573.70978	-296.23618	-14.83123	580.73157	656.69312	141.01231	574.25665	649.72046	
14	0.130	-185.78426	19.78489	-144.80768	228.78973	17.83274	-163.99432	-154.75923	15.51351	494.50433	249.16301	18.70909	443.24478	-85.56747	1206.12256	-298.43051	-61.23861	574.26166	-288.78510	98.50992	573.68481	-296.23642	-14.79563	580.75836	656.68658	141.07658	574.27686	649.72125	
15	0.140	-185.75760	19.79927	-144.80267	228.83759	17.81649	-163.97287	-154.70653	15.52922	494.54330	249.24734	18.74166	443.23627	-85.71722	1206.14526	-298.43228	-61.18922	574.22083	-288.74356	98.42690	573.71356	-296.25330	-14.80351	580.74219	656.69885	141.06734	574.28088	649.72229	
16	0.150	-185.73077	19.78002	-144.81049	228.82298	17.79716	-164.00623	-154.73540	15.50998	494.55441	249.35168	18.75807	443.23248	-85.64040	1206.10779	-298.40356	-61.20881	574.23248	-288.70541	98.47489	573.69446	-296.23822	-14.81374	580.73364	656.68536	141.08154	574.25690	649.73425	
17	0.160	-185.67833	19.71041	-144.77452	228.84596	17.82622	-163.96449	-154.71613	15.47113	494.56674	249.39658	18.80134	443.28766	-85.28344	1206.15979	-298.18109	-61.23849	574.25104	-288.74045	98.45460	573.76508	-296.15662	-14.83539	580.70306	656.68964	141.07356	574.26538	649.70654	
18	0.170	-185.81224	19.76960	-144.80490	228.85406	17.83039	-163.95242	-154.70018	15.47778	494.58398	249.19881	18.70145	443.22147	-85.80351	1206.12634	-298.50436	-61.23156	574.23517	-288.73401	98.45638	573.76721	-296.19739	-14.80967	580.73077	656.71442	140.96988	574.23761	649.71191	
19	0.180	-185.82043	19.78195	-144.81453	228.83937	17.81777	-163.97923	-154.73039	15.49267	494.53497	249.20277	18.70204	443.20905	-85.74007	1206.09070	-298.46475	-61.28831	574.21625	-288.72299	98.42026	573.72260	-296.19937	-14.81274	580.70593	656.69098	141.05534	574.28748	649.70868	
20	0.190	-185.77786	19.80795	-144.77287	228.79375	17.79762	-163.98610	-154.73560	15.51648	494.51752	249.20433	18.71932	443.22427	-85.74484	1206.11328	-298.41504	-61.27679	574.21973	-288.74915	98.43600	573.74030	-296.17697	-14.83737	580.70160	656.68701	141.00414	574.27295	649.71399	
21	0.200	-185.77594	19.80388	-144.79710	228.81525	17.82657	-163.97633	-154.71408	15.51260	494.57281	249.23555	18.71078	443.19839	-85.73338	1206.10413	-298.44714	-61.29566	574.23669	-288.72021	98.50345	573.72046	-296.21121	-14.83171	580.72272	656.69989	140.97792	574.29498	649.68793	
22	0.210	-185.77840	19.73114	-144.79550	228.79506	17.80090	-163.99609	-154.70726	15.50956	494.54654	249.31410	18.81755	443.29639	-85.46236	1206.13855	-298.13467	-61.30988	574.22369	-288.74576	98.43703	573.75763	-296.18933	-14.82573	580.69843	656.71625	141.03435	574.29309	649.71643	
23	0.220	-185.76993	19.74829	-144.74817	228.79573	17.79549	-163.97089	-154.71487	15.48909	494.55005	249.30618	18.77566	443.27075	-85.77457	1206.16187	-298.42944	-61.27609	574.21582	-288.71503	98.46323	573.73682	-296.19659	-14.80808	580.72235	656.70026	140.96327	574.26935	649.67773	
24	0.230	-185.77446	19.74100	-144.77641	228.80006	17.79984	-163.98654	-154.71046	15.51062	494.55188	249.22710	18.76278	443.26331	-85.89549	1206.09692	-298.45462	-61.34899	574.22858	-288.75458	98.45254	573.71240	-296.22806	-14.83885	580.71362	656.69806	140.94351	574.27344	649.71417	
